<?xml version="1.0" encoding="utf-8"?>
<!-- Generator: Adobe Illustrator 18.1.1, SVG Export Plug-In . SVG Version: 6.00 Build 0)  -->
<svg version="1.1" id="圖層_1" xmlns="http://www.w3.org/2000/svg" xmlns:xlink="http://www.w3.org/1999/xlink" x="0px" y="0px"
	 viewBox="0 0 100 100" enable-background="new 0 0 100 100" xml:space="preserve">
<circle fill="#F6F6F6" cx="50" cy="50" r="50"/>
<g>
	<path fill="#6CC3BB" d="M26,51.2c-0.1,0.7-0.2,1.3-0.2,2v24.8c0,6.4,4.1,11.7,10.6,11.7h13.7c6.4,0,10.6-5.3,10.6-11.7V64
		c0-0.8,1.8-1.5,2.7-1.5c0,0,0,0,0,0c0.8,0,1.4,0.7,1.4,1.5v16.3c0,7.3-6,13.3-13.3,13.3H35c-7.3,0-13.3-6-13.3-13.3V51.2"/>
	<path fill="#A4D8D6" d="M24.9,51.9c-0.1,0.7-0.2,1.3-0.2,2v24.8c0,6.4,4.1,11.7,10.6,11.7H49c6.4,0,10.6-5.3,10.6-11.7V64.7
		c0-0.8,1.8-1.5,2.7-1.5c0,0,0,0,0,0c0.8,0,1.4,0.7,1.4,1.5V81c0,7.3-6,13.3-13.3,13.3H33.9c-7.3,0-13.3-6-13.3-13.3V51.9"/>
	<path fill="#6DC4BC" d="M72.6,17.4h4.1c1.8,0,3.2,1.4,3.2,3.2V57c0,1.8-1.4,3.2-3.2,3.2H48.8c-1.8,0-3.2-1.4-3.2-3.2V20.6
		c0-1.8,1.4-3.2,3.2-3.2h5.5l-0.1-4.2h-8.1c-2.1,0-3.8,1.7-3.8,3.8v43.4c0,2.1,1.7,3.8,3.8,3.8h33.3c2.1,0,3.8-1.7,3.8-3.8V17.1
		c0-2.1-1.7-3.8-3.8-3.8h-6.8L72.6,17.4z"/>
	<path fill="#FFFFFF" d="M71.5,17.4h4.1c1.8,0,3.2,1.4,3.2,3.2V57c0,1.8-1.4,3.2-3.2,3.2H47.7c-1.8,0-3.2-1.4-3.2-3.2V20.6
		c0-1.8,1.4-3.2,3.2-3.2h5.5L53,13.3H45c-2.1,0-3.8,1.7-3.8,3.8v43.4c0,2.1,1.7,3.8,3.8,3.8h33.3c2.1,0,3.8-1.7,3.8-3.8V17.1
		c0-2.1-1.7-3.8-3.8-3.8h-6.8L71.5,17.4z"/>
	<circle fill="#5BBFB3" cx="54.3" cy="15.4" r="4.2"/>
	<circle fill="#E35E1D" cx="23.9" cy="49.5" r="9.4"/>
	<circle fill="#E77435" cx="22.7" cy="49.5" r="9.4"/>
	<circle fill="#FFFFFF" cx="22.7" cy="49.5" r="5.6"/>
	<path fill="#EFA953" d="M26.5,48.8c0-0.3,0-0.5-0.1-0.8c-0.3-0.7-1-1.1-1.7-1.1c-1.1,0-1.9,0.9-1.9,1.9c0-1.1-0.9-1.9-1.9-1.9
		c-1.1,0-1.9,0.9-1.9,1.9c0,1.3,1,2.6,1.8,3.4c0.2,0.2,1.6,1.6,2,1.4c1.1-0.5,1.9-1.3,2.8-2.3C26,50.7,26.5,49.7,26.5,48.8z"/>
	<circle fill="#5BBFB3" cx="70.4" cy="15.4" r="4.2"/>
	<g>
		<circle fill="#F90808" cx="61.9" cy="38.8" r="8.9"/>
		<g>
			<rect x="60.3" y="32.7" fill="#FFFFFF" width="3.1" height="12.2"/>
			<rect x="55.8" y="37.3" fill="#FFFFFF" width="12.2" height="3.1"/>
		</g>
	</g>
	<path fill="#A4D8D6" d="M78.8,43.9V57c0,1.8-1.4,3.2-3.2,3.2H47.7c-1.8,0-3.2-1.4-3.2-3.2V43.3l-3.4,0v17.3c0,2.1,1.7,3.8,3.8,3.8
		h33.3c2.1,0,3.8-1.7,3.8-3.8V43.9L78.8,43.9z"/>
</g>
</svg>
